<svg xmlns="http://www.w3.org/2000/svg" xmlns:xlink="http://www.w3.org/1999/xlink" width="375" viewBox="0 0 375 375" height="375" version="1.0"><defs><g id="e"><path d="M 14.65625 -0.523438 C 14.65625 -0.183594 14.816406 0 15.15625 0 L 17.902344 0 C 18.296875 0 18.453125 -0.183594 18.453125 -0.523438 L 18.453125 -18.898438 C 18.453125 -19.316406 18.191406 -19.421875 17.980469 -19.421875 L 15.15625 -19.421875 C 14.816406 -19.421875 14.65625 -19.1875 14.65625 -18.871094 L 14.65625 -12.066406 L 5.941406 -12.066406 L 5.941406 -18.898438 C 5.941406 -19.316406 5.652344 -19.421875 5.445312 -19.421875 L 2.617188 -19.421875 C 2.277344 -19.421875 2.121094 -19.1875 2.121094 -18.871094 L 2.121094 -0.523438 C 2.121094 -0.183594 2.277344 0 2.617188 0 L 5.367188 0 C 5.785156 0 5.941406 -0.183594 5.941406 -0.523438 L 5.941406 -8.375 L 14.65625 -8.375 Z M 14.65625 -0.523438"/></g><g id="f"><path d="M 0.394531 -0.550781 C 0.234375 -0.183594 0.394531 0 0.734375 0 L 3.613281 0 C 3.898438 0 4.136719 -0.132812 4.265625 -0.472656 L 5.496094 -3.613281 L 13.53125 -3.613281 L 14.789062 -0.472656 C 14.917969 -0.132812 15.128906 0 15.441406 0 L 18.296875 0 C 18.636719 0 18.820312 -0.210938 18.664062 -0.550781 L 11.28125 -18.925781 C 11.152344 -19.265625 10.914062 -19.421875 10.628906 -19.421875 L 8.429688 -19.421875 C 8.167969 -19.421875 7.929688 -19.265625 7.773438 -18.925781 Z M 9.527344 -14.394531 L 12.277344 -6.988281 L 6.726562 -6.988281 Z M 9.527344 -14.394531"/></g><g id="g"><path d="M 2.121094 -0.523438 C 2.121094 -0.183594 2.277344 0 2.617188 0 L 5.390625 0 C 5.730469 0 5.914062 -0.183594 5.914062 -0.523438 L 5.914062 -6.988281 L 10.183594 -6.988281 C 13.691406 -6.988281 16.28125 -9.945312 16.28125 -13.167969 C 16.28125 -16.386719 13.769531 -19.421875 10.234375 -19.421875 L 2.617188 -19.421875 C 2.328125 -19.421875 2.121094 -19.238281 2.121094 -18.898438 Z M 9.476562 -16.097656 C 11.203125 -16.097656 12.40625 -14.761719 12.40625 -13.167969 C 12.40625 -11.542969 11.203125 -10.285156 9.476562 -10.285156 L 5.914062 -10.285156 L 5.914062 -16.097656 Z M 9.476562 -16.097656"/></g><g id="h"><path d="M 7.433594 -0.550781 C 7.433594 -0.183594 7.589844 0 7.929688 0 L 10.757812 0 C 11.097656 0 11.253906 -0.183594 11.253906 -0.550781 L 11.253906 -8.191406 L 17.511719 -18.847656 C 17.695312 -19.210938 17.511719 -19.421875 17.171875 -19.421875 L 13.925781 -19.421875 C 13.636719 -19.421875 13.453125 -19.289062 13.269531 -18.949219 L 9.34375 -11.332031 L 5.390625 -18.949219 C 5.207031 -19.289062 5.027344 -19.421875 4.738281 -19.421875 L 1.519531 -19.421875 C 1.179688 -19.421875 0.996094 -19.210938 1.179688 -18.847656 L 7.433594 -8.167969 Z M 7.433594 -0.550781"/></g><g id="j"><path d="M 11.203125 -3.273438 C 7.644531 -3.21875 4.84375 -6.203125 4.84375 -9.761719 C 4.84375 -13.296875 7.566406 -16.046875 11.203125 -16.046875 C 12.640625 -16.046875 13.847656 -15.523438 14.867188 -14.761719 C 15 -14.683594 15.101562 -14.65625 15.207031 -14.65625 C 15.363281 -14.65625 15.496094 -14.738281 15.601562 -14.839844 L 17.144531 -17.066406 C 17.300781 -17.277344 17.300781 -17.539062 17.015625 -17.746094 C 15.363281 -19.003906 13.507812 -19.710938 11.152344 -19.710938 C 5.601562 -19.710938 1.152344 -15.285156 1.152344 -9.761719 C 1.152344 -4.214844 5.652344 0.261719 11.203125 0.261719 C 13.558594 0.261719 15.703125 -0.574219 17.277344 -1.648438 C 17.457031 -1.804688 17.539062 -1.988281 17.539062 -2.226562 L 17.539062 -8.167969 C 17.539062 -8.585938 17.277344 -8.691406 17.039062 -8.691406 L 14.710938 -8.691406 C 14.34375 -8.691406 14.1875 -8.507812 14.1875 -8.167969 L 14.1875 -4.160156 C 13.347656 -3.535156 12.199219 -3.273438 11.203125 -3.273438 Z M 11.203125 -3.273438"/></g><g id="k"><path d="M 2.121094 -0.523438 C 2.121094 -0.183594 2.277344 0 2.617188 0 L 5.417969 0 C 5.785156 0 5.941406 -0.183594 5.941406 -0.523438 L 5.941406 -6.726562 L 9.921875 -6.726562 L 13.035156 -0.445312 C 13.191406 -0.105469 13.347656 0 13.636719 0 L 17.015625 0 C 17.355469 0 17.484375 -0.3125 17.355469 -0.550781 L 13.792969 -7.617188 C 15.757812 -8.769531 17.09375 -10.835938 17.09375 -13.035156 C 17.09375 -16.332031 14.527344 -19.421875 10.941406 -19.421875 L 2.617188 -19.421875 C 2.277344 -19.421875 2.121094 -19.1875 2.121094 -18.898438 Z M 10.023438 -16.046875 C 11.832031 -16.046875 13.191406 -14.761719 13.191406 -13.113281 C 13.191406 -11.414062 11.832031 -10.183594 10.023438 -10.183594 L 5.941406 -10.183594 L 5.941406 -16.046875 Z M 10.023438 -16.046875"/></g><g id="l"><path d="M 2.121094 -0.523438 C 2.121094 -0.183594 2.304688 0 2.644531 0 L 9.003906 0 C 14.449219 -0.183594 18.714844 -4.476562 18.714844 -9.710938 C 18.714844 -15.179688 13.847656 -19.421875 8.898438 -19.421875 L 2.644531 -19.421875 C 2.304688 -19.421875 2.121094 -19.238281 2.121094 -18.898438 Z M 14.867188 -9.710938 C 14.867188 -6.28125 12.144531 -3.535156 8.558594 -3.535156 L 5.96875 -3.535156 L 5.96875 -15.886719 L 8.558594 -15.886719 C 12.144531 -15.886719 14.867188 -13.140625 14.867188 -9.710938 Z M 14.867188 -9.710938"/></g><g id="m"><path d="M 2.121094 -0.523438 C 2.121094 -0.183594 2.277344 0 2.617188 0 L 15.652344 0 C 15.992188 0 16.203125 -0.183594 16.203125 -0.523438 L 16.203125 -3.035156 C 16.203125 -3.375 15.992188 -3.558594 15.652344 -3.558594 L 5.941406 -3.558594 L 5.941406 -8.351562 L 13.167969 -8.351562 C 13.53125 -8.351562 13.742188 -8.53125 13.742188 -8.875 L 13.742188 -11.359375 C 13.742188 -11.726562 13.507812 -11.882812 13.167969 -11.882812 L 5.941406 -11.882812 L 5.941406 -15.835938 L 15.417969 -15.835938 C 15.757812 -15.835938 15.941406 -16.019531 15.941406 -16.359375 L 15.941406 -18.898438 C 15.941406 -19.238281 15.757812 -19.421875 15.417969 -19.421875 L 2.617188 -19.421875 C 2.277344 -19.421875 2.121094 -19.238281 2.121094 -18.898438 Z M 2.121094 -0.523438"/></g><g id="n"><path d="M 1.703125 -2.957031 C 3.457031 -1.046875 6.152344 0.261719 8.847656 0.261719 C 12.640625 0.261719 16.125 -2.09375 16.125 -5.730469 C 16.125 -9.371094 13.167969 -10.757812 9.632812 -11.804688 C 7.40625 -12.433594 5.835938 -12.957031 5.835938 -14.292969 C 5.835938 -16.070312 7.511719 -16.386719 8.847656 -16.386719 C 10.390625 -16.386719 11.753906 -15.285156 12.589844 -14.578125 C 12.800781 -14.421875 13.007812 -14.265625 13.21875 -14.265625 C 13.347656 -14.265625 13.453125 -14.316406 13.585938 -14.421875 L 15.023438 -15.964844 C 15.363281 -16.332031 15.363281 -16.648438 15.050781 -16.988281 C 13.507812 -18.558594 11.253906 -19.789062 8.976562 -19.789062 C 4.765625 -19.789062 1.910156 -17.589844 1.910156 -14.371094 C 1.910156 -11.386719 4.160156 -9.710938 8.402344 -8.453125 C 9.789062 -8.089844 12.066406 -7.511719 12.066406 -5.835938 C 12.066406 -4.527344 10.835938 -3.296875 8.769531 -3.296875 C 6.78125 -3.296875 5.3125 -4.476562 4.242188 -5.550781 C 4.058594 -5.707031 3.847656 -5.835938 3.664062 -5.835938 C 3.558594 -5.835938 3.457031 -5.785156 3.324219 -5.679688 L 1.570312 -3.953125 C 1.203125 -3.585938 1.414062 -3.273438 1.703125 -2.957031 Z M 1.703125 -2.957031"/></g><g id="o"><path d="M 2.996094 -2.824219 L 9.34375 -2.824219 L 10.355469 -0.332031 C 10.421875 -0.140625 10.597656 0 10.824219 0 L 11.574219 0 C 11.800781 0 11.957031 -0.0859375 11.957031 -0.277344 C 11.957031 -0.347656 11.90625 -0.488281 11.90625 -0.488281 L 6.886719 -12.621094 C 6.832031 -12.742188 6.746094 -12.933594 6.449219 -12.933594 L 5.945312 -12.933594 C 5.628906 -12.933594 5.558594 -12.742188 5.507812 -12.621094 C 5.507812 -12.601562 5.492188 -12.601562 0.453125 -0.503906 C 0.453125 -0.503906 0.417969 -0.402344 0.417969 -0.277344 C 0.417969 -0.0859375 0.539062 0 0.785156 0 L 1.535156 0 C 1.777344 0 1.917969 -0.105469 2.023438 -0.347656 Z M 6.1875 -10.683594 L 8.734375 -4.304688 L 3.625 -4.304688 Z M 6.1875 -10.683594"/></g><g id="p"><path d="M 8.417969 -0.558594 C 8.574219 -0.558594 8.699219 -0.664062 8.785156 -0.871094 L 12.792969 -10.300781 L 13.769531 -0.382812 C 13.769531 -0.121094 13.890625 0 14.152344 0 L 14.886719 0 C 15.148438 0 15.285156 -0.121094 15.285156 -0.382812 L 14.015625 -12.550781 C 14.015625 -12.757812 13.855469 -12.933594 13.628906 -12.933594 L 12.496094 -12.933594 C 12.324219 -12.933594 12.183594 -12.8125 12.132812 -12.601562 C 10.789062 -9.359375 9.429688 -6.117188 8.085938 -2.875 L 4.042969 -12.601562 C 3.972656 -12.8125 3.851562 -12.933594 3.660156 -12.933594 L 2.578125 -12.933594 C 2.351562 -12.933594 2.160156 -12.777344 2.160156 -12.550781 C 1.742188 -8.488281 1.324219 -4.445312 0.90625 -0.382812 C 0.90625 -0.121094 1.027344 0 1.289062 0 L 2.023438 0 C 2.285156 0 2.421875 -0.121094 2.421875 -0.382812 L 3.382812 -10.300781 L 7.390625 -0.871094 C 7.476562 -0.664062 7.597656 -0.558594 7.738281 -0.558594 Z M 8.417969 -0.558594"/></g><g id="q"><path d="M 2.910156 -12.550781 C 2.910156 -12.777344 2.753906 -12.933594 2.527344 -12.933594 L 1.796875 -12.933594 C 1.550781 -12.933594 1.410156 -12.792969 1.410156 -12.550781 L 1.410156 -0.382812 C 1.410156 -0.121094 1.535156 0 1.796875 0 L 2.527344 0 C 2.769531 0 2.910156 -0.121094 2.910156 -0.382812 Z M 2.910156 -12.550781"/></g><g id="r"><path d="M 10.144531 -2.109375 C 9.640625 -1.742188 8.628906 -1.324219 7.425781 -1.324219 C 4.652344 -1.324219 2.285156 -3.574219 2.285156 -6.433594 C 2.285156 -9.117188 4.425781 -11.574219 7.441406 -11.574219 C 8.574219 -11.574219 9.671875 -11.171875 10.527344 -10.5625 C 10.648438 -10.457031 10.773438 -10.421875 10.859375 -10.421875 C 10.964844 -10.421875 11.066406 -10.492188 11.15625 -10.632812 L 11.539062 -11.261719 C 11.574219 -11.3125 11.589844 -11.382812 11.589844 -11.453125 C 11.589844 -11.886719 10.40625 -12.429688 9.8125 -12.65625 C 9.0625 -12.949219 8.261719 -13.109375 7.425781 -13.109375 C 3.746094 -13.109375 0.765625 -10.109375 0.765625 -6.449219 C 0.765625 -2.769531 3.730469 0.191406 7.40625 0.191406 C 8.925781 0.191406 10.300781 -0.261719 11.382812 -1.0625 L 11.417969 -1.097656 C 11.609375 -1.21875 11.660156 -1.34375 11.660156 -1.464844 L 11.660156 -5.332031 C 11.660156 -5.578125 11.46875 -5.71875 11.261719 -5.71875 L 10.527344 -5.71875 C 10.265625 -5.71875 10.144531 -5.578125 10.144531 -5.332031 Z M 10.144531 -2.109375"/></g><g id="s"><path d="M 7.425781 -13.109375 C 3.746094 -13.109375 0.765625 -10.128906 0.765625 -6.449219 C 0.765625 -2.769531 3.730469 0.191406 7.40625 0.191406 C 11.101562 0.191406 14.082031 -2.769531 14.082031 -6.433594 C 14.082031 -10.144531 11.085938 -13.109375 7.425781 -13.109375 Z M 2.285156 -6.464844 C 2.285156 -9.289062 4.566406 -11.589844 7.425781 -11.589844 C 10.25 -11.589844 12.550781 -9.289062 12.550781 -6.464844 C 12.550781 -3.609375 10.25 -1.308594 7.425781 -1.308594 C 4.566406 -1.308594 2.285156 -3.609375 2.285156 -6.464844 Z M 2.285156 -6.464844"/></g><g id="t"><path d="M 8.734375 -10.25 C 8.835938 -10.144531 8.941406 -10.074219 9.046875 -10.074219 C 9.117188 -10.074219 9.203125 -10.128906 9.273438 -10.195312 L 9.796875 -10.703125 C 9.882812 -10.789062 9.933594 -10.875 9.933594 -10.980469 C 9.933594 -11.121094 9.742188 -11.3125 9.605469 -11.46875 C 8.609375 -12.429688 7.042969 -13.125 5.648438 -13.125 C 2.929688 -13.125 1.167969 -11.644531 1.167969 -9.515625 C 1.167969 -7.757812 2.597656 -6.816406 5.457031 -6.082031 C 7.269531 -5.613281 8.976562 -5.195312 8.976562 -3.765625 C 8.976562 -2.074219 7.09375 -1.289062 5.648438 -1.289062 C 4.8125 -1.289062 3.191406 -1.847656 2.160156 -2.910156 C 2.109375 -2.964844 1.933594 -3.171875 1.777344 -3.171875 C 1.707031 -3.171875 1.585938 -3.136719 1.515625 -3.085938 L 0.957031 -2.613281 C 0.855469 -2.527344 0.800781 -2.441406 0.800781 -2.335938 C 0.800781 -2.25 0.855469 -2.144531 0.941406 -2.023438 C 2.058594 -0.574219 3.800781 0.175781 5.59375 0.175781 C 8.3125 0.175781 10.476562 -1.378906 10.476562 -3.871094 C 10.476562 -6.308594 7.949219 -6.917969 5.875 -7.496094 C 4.375 -7.894531 2.769531 -8.382812 2.769531 -9.570312 C 2.769531 -10.582031 3.609375 -11.660156 5.578125 -11.660156 C 7.042969 -11.660156 8.175781 -10.753906 8.734375 -10.25 Z M 8.734375 -10.25"/></g><g id="v"><path d="M 0.765625 -12.933594 C 0.523438 -12.933594 0.367188 -12.777344 0.367188 -12.550781 L 0.367188 -11.835938 C 0.367188 -11.554688 0.523438 -11.417969 0.765625 -11.417969 L 4.496094 -11.417969 L 4.496094 -0.382812 C 4.496094 -0.15625 4.671875 0 4.898438 0 L 5.613281 0 C 5.875 0 6.011719 -0.175781 6.011719 -0.382812 L 6.011719 -11.417969 L 9.726562 -11.417969 C 10.003906 -11.417969 10.144531 -11.609375 10.144531 -11.835938 L 10.144531 -12.550781 C 10.128906 -12.8125 9.933594 -12.933594 9.726562 -12.933594 Z M 0.765625 -12.933594"/></g><g id="w"><path d="M 1.796875 -12.933594 C 1.550781 -12.933594 1.410156 -12.792969 1.410156 -12.53125 L 1.410156 -0.367188 C 1.410156 -0.105469 1.550781 0 1.796875 0 L 10.25 0 C 10.492188 0 10.632812 -0.140625 10.632812 -0.382812 L 10.632812 -1.097656 C 10.632812 -1.378906 10.492188 -1.515625 10.230469 -1.515625 L 2.910156 -1.515625 L 2.910156 -6.046875 L 8.679688 -6.046875 C 8.925781 -6.046875 9.0625 -6.238281 9.0625 -6.449219 L 9.0625 -7.164062 C 9.0625 -7.441406 8.890625 -7.566406 8.679688 -7.566406 L 2.910156 -7.566406 L 2.910156 -11.417969 L 10.160156 -11.417969 C 10.421875 -11.417969 10.5625 -11.609375 10.5625 -11.816406 L 10.5625 -12.53125 C 10.5625 -12.8125 10.421875 -12.933594 10.179688 -12.933594 Z M 1.796875 -12.933594"/></g><g id="x"><path d="M 7.667969 -13.109375 C 3.957031 -13.109375 0.992188 -10.09375 0.992188 -6.484375 C 0.992188 -2.769531 4.007812 0.191406 7.632812 0.191406 C 11.328125 0.191406 14.292969 -2.804688 14.292969 -6.433594 C 14.292969 -10.144531 11.292969 -13.109375 7.667969 -13.109375 Z M 7.792969 -11.816406 C 10.421875 -11.816406 13.089844 -9.707031 13.089844 -6.570312 C 13.089844 -3.851562 10.773438 -1.0625 7.597656 -1.0625 C 4.757812 -1.0625 2.230469 -3.363281 2.230469 -6.363281 C 2.230469 -9.394531 4.8125 -11.816406 7.792969 -11.816406 Z M 9.953125 -9.777344 C 9.273438 -10.214844 8.59375 -10.441406 7.757812 -10.441406 C 5.558594 -10.441406 3.710938 -8.644531 3.710938 -6.433594 C 3.710938 -4.234375 5.492188 -2.457031 7.703125 -2.457031 C 8.523438 -2.457031 9.289062 -2.683594 9.96875 -3.136719 C 10.058594 -3.207031 10.109375 -3.277344 10.109375 -3.347656 C 10.109375 -3.382812 10.09375 -3.417969 10.074219 -3.46875 L 9.570312 -4.324219 C 9.5 -4.410156 9.445312 -4.445312 9.378906 -4.445312 C 9.324219 -4.445312 9.273438 -4.425781 9.21875 -4.390625 C 8.785156 -4.0625 8.28125 -3.90625 7.703125 -3.90625 C 6.292969 -3.90625 5.160156 -5.003906 5.160156 -6.433594 C 5.160156 -7.859375 6.292969 -8.992188 7.703125 -8.992188 C 8.261719 -8.992188 8.75 -8.835938 9.203125 -8.507812 C 9.253906 -8.472656 9.308594 -8.453125 9.359375 -8.453125 C 9.429688 -8.453125 9.5 -8.488281 9.550781 -8.558594 L 10.058594 -9.429688 C 10.074219 -9.464844 10.09375 -9.5 10.09375 -9.535156 C 10.09375 -9.621094 10.039062 -9.707031 9.953125 -9.777344 Z M 9.953125 -9.777344"/></g><clipPath id="a"><path d="M 36 26.773438 L 159 26.773438 L 159 221 L 36 221 Z M 36 26.773438"/></clipPath><clipPath id="b"><path d="M 13.796875 52 L 295.796875 52 L 295.796875 246.523438 L 13.796875 246.523438 Z M 13.796875 52"/></clipPath><clipPath id="c"><path d="M 150 26.773438 L 273 26.773438 L 273 221 L 150 221 Z M 150 26.773438"/></clipPath><clipPath id="d"><path d="M 290 184.261719 L 374.828125 184.261719 L 374.828125 348.511719 L 290 348.511719 Z M 290 184.261719"/></clipPath></defs><g clip-path="url(#a)"><path fill="#2E2D2D" d="M 154.617188 220.667969 L 41.046875 220.667969 C 40.78125 220.667969 40.515625 220.640625 40.253906 220.589844 C 39.988281 220.535156 39.734375 220.460938 39.488281 220.355469 C 39.238281 220.253906 39.003906 220.128906 38.78125 219.980469 C 38.558594 219.832031 38.351562 219.664062 38.164062 219.472656 C 37.972656 219.285156 37.804688 219.078125 37.65625 218.855469 C 37.507812 218.632812 37.378906 218.398438 37.277344 218.148438 C 37.175781 217.902344 37.097656 217.648438 37.046875 217.386719 C 36.992188 217.121094 36.96875 216.855469 36.96875 216.589844 L 36.96875 30.851562 C 36.96875 30.582031 36.992188 30.316406 37.046875 30.054688 C 37.097656 29.792969 37.175781 29.535156 37.277344 29.289062 C 37.378906 29.042969 37.507812 28.808594 37.65625 28.585938 C 37.804688 28.363281 37.972656 28.15625 38.164062 27.964844 C 38.351562 27.777344 38.558594 27.609375 38.78125 27.460938 C 39.003906 27.308594 39.238281 27.183594 39.488281 27.082031 C 39.734375 26.980469 39.988281 26.902344 40.253906 26.851562 C 40.515625 26.796875 40.78125 26.773438 41.046875 26.773438 L 128.390625 26.773438 C 129.382812 26.773438 130.371094 26.824219 131.359375 26.921875 C 132.347656 27.019531 133.328125 27.164062 134.300781 27.359375 C 135.273438 27.554688 136.234375 27.796875 137.183594 28.082031 C 138.132812 28.371094 139.066406 28.707031 139.984375 29.085938 C 140.898438 29.464844 141.792969 29.890625 142.667969 30.359375 C 143.542969 30.828125 144.394531 31.335938 145.21875 31.886719 C 146.042969 32.4375 146.839844 33.027344 147.605469 33.65625 C 148.375 34.285156 149.109375 34.953125 149.808594 35.652344 C 150.511719 36.355469 151.175781 37.089844 151.804688 37.855469 C 152.4375 38.621094 153.027344 39.417969 153.578125 40.242188 C 154.128906 41.066406 154.640625 41.914062 155.109375 42.789062 C 155.574219 43.664062 156 44.558594 156.378906 45.472656 C 156.761719 46.390625 157.09375 47.324219 157.382812 48.269531 C 157.671875 49.21875 157.914062 50.179688 158.109375 51.152344 C 158.300781 52.125 158.449219 53.105469 158.546875 54.089844 C 158.644531 55.078125 158.695312 56.066406 158.695312 57.058594 L 158.695312 216.589844 C 158.695312 216.855469 158.667969 217.121094 158.617188 217.386719 C 158.566406 217.648438 158.488281 217.902344 158.386719 218.148438 C 158.28125 218.398438 158.15625 218.632812 158.007812 218.855469 C 157.859375 219.078125 157.691406 219.285156 157.5 219.472656 C 157.3125 219.664062 157.105469 219.832031 156.882812 219.980469 C 156.660156 220.128906 156.425781 220.253906 156.175781 220.355469 C 155.929688 220.460938 155.675781 220.535156 155.410156 220.589844 C 155.148438 220.640625 154.882812 220.667969 154.617188 220.667969 Z M 45.128906 212.511719 L 150.535156 212.511719 L 150.535156 57.058594 C 150.535156 56.335938 150.496094 55.613281 150.425781 54.890625 C 150.355469 54.167969 150.246094 53.453125 150.105469 52.742188 C 149.964844 52.03125 149.785156 51.332031 149.574219 50.636719 C 149.363281 49.945312 149.121094 49.261719 148.84375 48.59375 C 148.566406 47.925781 148.253906 47.269531 147.914062 46.632812 C 147.570312 45.992188 147.199219 45.371094 146.796875 44.769531 C 146.390625 44.167969 145.960938 43.585938 145.5 43.027344 C 145.039062 42.464844 144.554688 41.929688 144.042969 41.417969 C 143.527344 40.90625 142.992188 40.417969 142.433594 39.960938 C 141.871094 39.5 141.289062 39.066406 140.6875 38.664062 C 140.085938 38.261719 139.464844 37.890625 138.824219 37.546875 C 138.183594 37.207031 137.53125 36.898438 136.859375 36.621094 C 136.191406 36.339844 135.507812 36.097656 134.816406 35.886719 C 134.121094 35.675781 133.417969 35.5 132.707031 35.355469 C 131.996094 35.214844 131.28125 35.109375 130.558594 35.035156 C 129.839844 34.964844 129.117188 34.929688 128.390625 34.929688 L 45.128906 34.929688 Z M 45.128906 212.511719"/></g><path fill="#2E2D2D" d="M 154.242188 52.636719 C 154.492188 54.101562 154.617188 55.574219 154.617188 57.058594 L 154.617188 60.792969 L 154.757812 60.792969 L 154.757812 57.058594 C 154.757812 55.574219 154.882812 54.101562 155.132812 52.636719 Z M 154.242188 52.636719"/><g clip-path="url(#b)"><path fill="#2E2D2D" d="M 280.84375 52.636719 L 268.324219 52.636719 L 268.324219 60.792969 L 280.84375 60.792969 C 281.28125 60.792969 281.714844 60.835938 282.144531 60.921875 C 282.570312 61.007812 282.988281 61.132812 283.390625 61.300781 C 283.796875 61.46875 284.179688 61.671875 284.542969 61.917969 C 284.90625 62.160156 285.242188 62.433594 285.554688 62.746094 C 285.863281 63.054688 286.136719 63.390625 286.382812 63.753906 C 286.625 64.117188 286.828125 64.5 286.996094 64.902344 C 287.164062 65.308594 287.292969 65.722656 287.378906 66.152344 C 287.460938 66.582031 287.503906 67.011719 287.507812 67.449219 L 287.507812 231.710938 C 287.503906 232.144531 287.460938 232.578125 287.378906 233.007812 C 287.292969 233.4375 287.164062 233.851562 286.996094 234.257812 C 286.828125 234.660156 286.625 235.042969 286.382812 235.40625 C 286.136719 235.769531 285.863281 236.105469 285.554688 236.414062 C 285.242188 236.722656 284.90625 237 284.542969 237.242188 C 284.179688 237.484375 283.796875 237.691406 283.390625 237.859375 C 282.988281 238.027344 282.570312 238.152344 282.144531 238.238281 C 281.714844 238.324219 281.28125 238.367188 280.84375 238.367188 L 28.75 238.367188 C 28.316406 238.367188 27.882812 238.324219 27.453125 238.238281 C 27.023438 238.152344 26.605469 238.027344 26.203125 237.859375 C 25.800781 237.691406 25.414062 237.484375 25.050781 237.242188 C 24.6875 237 24.351562 236.722656 24.042969 236.414062 C 23.734375 236.105469 23.457031 235.769531 23.214844 235.40625 C 22.972656 235.042969 22.765625 234.660156 22.597656 234.257812 C 22.429688 233.851562 22.304688 233.4375 22.21875 233.007812 C 22.132812 232.578125 22.089844 232.144531 22.089844 231.710938 L 22.089844 67.449219 C 22.089844 67.011719 22.132812 66.582031 22.21875 66.152344 C 22.304688 65.722656 22.429688 65.308594 22.597656 64.902344 C 22.765625 64.5 22.972656 64.117188 23.214844 63.753906 C 23.457031 63.390625 23.734375 63.054688 24.042969 62.746094 C 24.351562 62.433594 24.6875 62.160156 25.050781 61.917969 C 25.414062 61.671875 25.800781 61.46875 26.203125 61.300781 C 26.605469 61.132812 27.023438 61.007812 27.453125 60.921875 C 27.882812 60.835938 28.316406 60.792969 28.75 60.792969 L 41.046875 60.792969 L 41.046875 52.636719 L 28.75 52.636719 C 27.777344 52.636719 26.816406 52.734375 25.859375 52.921875 C 24.90625 53.113281 23.980469 53.394531 23.082031 53.769531 C 22.183594 54.140625 21.328125 54.597656 20.519531 55.136719 C 19.710938 55.679688 18.964844 56.292969 18.277344 56.980469 C 17.585938 57.667969 16.972656 58.414062 16.433594 59.222656 C 15.890625 60.03125 15.433594 60.886719 15.0625 61.785156 C 14.6875 62.683594 14.40625 63.609375 14.21875 64.5625 C 14.027344 65.515625 13.929688 66.476562 13.929688 67.449219 L 13.929688 231.710938 C 13.929688 232.683594 14.027344 233.644531 14.21875 234.597656 C 14.40625 235.550781 14.6875 236.476562 15.0625 237.375 C 15.433594 238.273438 15.890625 239.128906 16.433594 239.9375 C 16.972656 240.746094 17.589844 241.492188 18.277344 242.179688 C 18.964844 242.867188 19.710938 243.480469 20.519531 244.023438 C 21.332031 244.5625 22.183594 245.019531 23.082031 245.390625 C 23.980469 245.765625 24.90625 246.046875 25.863281 246.238281 C 26.816406 246.425781 27.78125 246.523438 28.753906 246.523438 L 280.84375 246.523438 C 281.816406 246.523438 282.78125 246.425781 283.734375 246.238281 C 284.691406 246.046875 285.617188 245.765625 286.515625 245.390625 C 287.414062 245.019531 288.269531 244.5625 289.078125 244.023438 C 289.886719 243.480469 290.632812 242.867188 291.324219 242.179688 C 292.011719 241.492188 292.625 240.746094 293.164062 239.9375 C 293.707031 239.128906 294.164062 238.273438 294.535156 237.375 C 294.910156 236.476562 295.191406 235.550781 295.382812 234.597656 C 295.570312 233.644531 295.667969 232.683594 295.667969 231.710938 L 295.667969 67.449219 C 295.667969 66.476562 295.570312 65.515625 295.382812 64.5625 C 295.191406 63.609375 294.910156 62.683594 294.535156 61.785156 C 294.164062 60.886719 293.707031 60.03125 293.164062 59.222656 C 292.625 58.414062 292.011719 57.667969 291.320312 56.980469 C 290.632812 56.292969 289.886719 55.675781 289.078125 55.136719 C 288.265625 54.597656 287.414062 54.140625 286.515625 53.769531 C 285.617188 53.394531 284.6875 53.113281 283.734375 52.921875 C 282.78125 52.734375 281.816406 52.636719 280.84375 52.636719 Z M 280.84375 52.636719"/></g><g clip-path="url(#c)"><path fill="#2E2D2D" d="M 268.328125 220.667969 L 154.757812 220.667969 C 154.488281 220.667969 154.222656 220.640625 153.960938 220.589844 C 153.699219 220.535156 153.445312 220.460938 153.195312 220.355469 C 152.949219 220.253906 152.714844 220.128906 152.492188 219.980469 C 152.269531 219.832031 152.0625 219.664062 151.871094 219.472656 C 151.683594 219.285156 151.511719 219.078125 151.363281 218.855469 C 151.214844 218.632812 151.089844 218.398438 150.988281 218.148438 C 150.886719 217.902344 150.808594 217.648438 150.753906 217.386719 C 150.703125 217.121094 150.675781 216.855469 150.675781 216.589844 L 150.675781 57.058594 C 150.679688 56.066406 150.726562 55.078125 150.824219 54.089844 C 150.925781 53.105469 151.070312 52.125 151.265625 51.152344 C 151.460938 50.179688 151.699219 49.21875 151.988281 48.269531 C 152.277344 47.320312 152.613281 46.390625 152.992188 45.472656 C 153.375 44.558594 153.796875 43.664062 154.265625 42.789062 C 154.734375 41.914062 155.242188 41.066406 155.796875 40.242188 C 156.347656 39.417969 156.9375 38.621094 157.566406 37.855469 C 158.195312 37.085938 158.863281 36.355469 159.5625 35.652344 C 160.265625 34.953125 161 34.285156 161.765625 33.65625 C 162.535156 33.027344 163.328125 32.4375 164.152344 31.886719 C 164.980469 31.335938 165.828125 30.824219 166.703125 30.359375 C 167.578125 29.890625 168.472656 29.464844 169.390625 29.085938 C 170.308594 28.707031 171.242188 28.371094 172.191406 28.082031 C 173.140625 27.796875 174.101562 27.554688 175.074219 27.359375 C 176.046875 27.164062 177.027344 27.019531 178.015625 26.921875 C 179 26.824219 179.992188 26.773438 180.984375 26.773438 L 268.328125 26.773438 C 268.59375 26.773438 268.859375 26.796875 269.121094 26.851562 C 269.386719 26.902344 269.640625 26.980469 269.886719 27.082031 C 270.136719 27.183594 270.371094 27.308594 270.59375 27.460938 C 270.816406 27.609375 271.023438 27.777344 271.210938 27.964844 C 271.402344 28.15625 271.570312 28.363281 271.71875 28.585938 C 271.867188 28.808594 271.992188 29.042969 272.097656 29.289062 C 272.199219 29.535156 272.277344 29.792969 272.328125 30.054688 C 272.378906 30.316406 272.40625 30.582031 272.40625 30.851562 L 272.40625 216.589844 C 272.40625 216.855469 272.378906 217.121094 272.328125 217.386719 C 272.277344 217.648438 272.199219 217.902344 272.097656 218.148438 C 271.992188 218.398438 271.867188 218.632812 271.71875 218.855469 C 271.570312 219.078125 271.402344 219.285156 271.210938 219.472656 C 271.023438 219.664062 270.816406 219.832031 270.59375 219.980469 C 270.371094 220.128906 270.136719 220.253906 269.886719 220.355469 C 269.640625 220.460938 269.386719 220.535156 269.121094 220.589844 C 268.859375 220.640625 268.59375 220.667969 268.328125 220.667969 Z M 158.839844 212.511719 L 264.246094 212.511719 L 264.246094 34.929688 L 180.984375 34.929688 C 180.257812 34.929688 179.535156 34.964844 178.8125 35.035156 C 178.09375 35.109375 177.375 35.214844 176.664062 35.355469 C 175.953125 35.5 175.25 35.675781 174.558594 35.886719 C 173.863281 36.097656 173.183594 36.339844 172.511719 36.621094 C 171.84375 36.898438 171.1875 37.207031 170.550781 37.546875 C 169.910156 37.890625 169.289062 38.261719 168.6875 38.664062 C 168.082031 39.066406 167.5 39.5 166.941406 39.960938 C 166.382812 40.417969 165.84375 40.90625 165.332031 41.417969 C 164.820312 41.929688 164.332031 42.464844 163.871094 43.027344 C 163.414062 43.585938 162.980469 44.167969 162.578125 44.769531 C 162.175781 45.371094 161.800781 45.992188 161.460938 46.632812 C 161.117188 47.269531 160.808594 47.925781 160.53125 48.59375 C 160.253906 49.261719 160.007812 49.945312 159.796875 50.636719 C 159.585938 51.332031 159.410156 52.03125 159.269531 52.742188 C 159.125 53.453125 159.019531 54.167969 158.945312 54.890625 C 158.875 55.613281 158.839844 56.335938 158.839844 57.058594 Z M 158.839844 212.511719"/></g><path fill="#2E2D2D" d="M 124.675781 75.585938 L 70.988281 75.585938 C 70.722656 75.585938 70.457031 75.558594 70.191406 75.507812 C 69.929688 75.453125 69.675781 75.375 69.425781 75.273438 C 69.179688 75.171875 68.945312 75.046875 68.722656 74.898438 C 68.5 74.75 68.292969 74.578125 68.101562 74.390625 C 67.914062 74.199219 67.746094 73.996094 67.597656 73.773438 C 67.445312 73.550781 67.320312 73.316406 67.21875 73.066406 C 67.117188 72.820312 67.039062 72.566406 66.988281 72.300781 C 66.933594 72.039062 66.90625 71.773438 66.910156 71.507812 C 66.90625 71.238281 66.933594 70.972656 66.988281 70.710938 C 67.039062 70.449219 67.117188 70.195312 67.21875 69.945312 C 67.320312 69.699219 67.445312 69.464844 67.597656 69.242188 C 67.746094 69.019531 67.914062 68.8125 68.101562 68.625 C 68.292969 68.433594 68.5 68.265625 68.722656 68.117188 C 68.945312 67.96875 69.179688 67.839844 69.425781 67.738281 C 69.675781 67.636719 69.929688 67.558594 70.191406 67.507812 C 70.457031 67.453125 70.722656 67.429688 70.988281 67.429688 L 124.675781 67.429688 C 124.941406 67.429688 125.207031 67.453125 125.472656 67.507812 C 125.734375 67.558594 125.988281 67.636719 126.238281 67.738281 C 126.484375 67.839844 126.71875 67.96875 126.941406 68.117188 C 127.164062 68.265625 127.371094 68.433594 127.558594 68.625 C 127.75 68.8125 127.917969 69.019531 128.066406 69.242188 C 128.214844 69.464844 128.34375 69.699219 128.445312 69.945312 C 128.546875 70.195312 128.625 70.449219 128.675781 70.710938 C 128.730469 70.972656 128.753906 71.238281 128.753906 71.507812 C 128.753906 71.773438 128.730469 72.039062 128.675781 72.300781 C 128.625 72.566406 128.546875 72.820312 128.445312 73.066406 C 128.34375 73.316406 128.214844 73.550781 128.066406 73.773438 C 127.917969 73.996094 127.75 74.199219 127.558594 74.390625 C 127.371094 74.578125 127.164062 74.75 126.941406 74.898438 C 126.71875 75.046875 126.484375 75.171875 126.238281 75.273438 C 125.988281 75.375 125.734375 75.453125 125.472656 75.507812 C 125.207031 75.558594 124.941406 75.585938 124.675781 75.585938 Z M 124.675781 75.585938"/><path fill="#2E2D2D" d="M 124.675781 103.117188 L 70.988281 103.117188 C 70.722656 103.117188 70.457031 103.089844 70.191406 103.039062 C 69.929688 102.988281 69.675781 102.910156 69.425781 102.808594 C 69.179688 102.703125 68.945312 102.578125 68.722656 102.429688 C 68.5 102.28125 68.292969 102.113281 68.101562 101.921875 C 67.914062 101.734375 67.746094 101.527344 67.597656 101.304688 C 67.445312 101.082031 67.320312 100.847656 67.21875 100.601562 C 67.117188 100.351562 67.039062 100.097656 66.988281 99.835938 C 66.933594 99.570312 66.90625 99.308594 66.910156 99.039062 C 66.90625 98.769531 66.933594 98.507812 66.988281 98.242188 C 67.039062 97.980469 67.117188 97.726562 67.21875 97.476562 C 67.320312 97.230469 67.445312 96.996094 67.597656 96.773438 C 67.746094 96.550781 67.914062 96.34375 68.101562 96.15625 C 68.292969 95.964844 68.5 95.796875 68.722656 95.648438 C 68.945312 95.5 69.179688 95.375 69.425781 95.269531 C 69.675781 95.167969 69.929688 95.089844 70.191406 95.039062 C 70.457031 94.988281 70.722656 94.960938 70.988281 94.960938 L 124.675781 94.960938 C 124.941406 94.960938 125.207031 94.988281 125.472656 95.039062 C 125.734375 95.089844 125.988281 95.167969 126.238281 95.269531 C 126.484375 95.375 126.71875 95.5 126.941406 95.648438 C 127.164062 95.796875 127.371094 95.964844 127.558594 96.15625 C 127.75 96.34375 127.917969 96.550781 128.066406 96.773438 C 128.214844 96.996094 128.34375 97.230469 128.445312 97.476562 C 128.546875 97.726562 128.625 97.980469 128.675781 98.242188 C 128.730469 98.507812 128.753906 98.769531 128.753906 99.039062 C 128.753906 99.308594 128.730469 99.570312 128.675781 99.835938 C 128.625 100.097656 128.546875 100.351562 128.445312 100.601562 C 128.34375 100.847656 128.214844 101.082031 128.066406 101.304688 C 127.917969 101.527344 127.75 101.734375 127.558594 101.921875 C 127.371094 102.113281 127.164062 102.28125 126.941406 102.429688 C 126.71875 102.578125 126.484375 102.703125 126.238281 102.808594 C 125.988281 102.910156 125.734375 102.988281 125.472656 103.039062 C 125.207031 103.089844 124.941406 103.117188 124.675781 103.117188 Z M 124.675781 103.117188"/><path fill="#2E2D2D" d="M 124.675781 130.648438 L 70.988281 130.648438 C 70.722656 130.648438 70.457031 130.621094 70.191406 130.570312 C 69.929688 130.515625 69.675781 130.441406 69.425781 130.335938 C 69.179688 130.234375 68.945312 130.109375 68.722656 129.960938 C 68.5 129.8125 68.292969 129.644531 68.101562 129.453125 C 67.914062 129.265625 67.746094 129.058594 67.597656 128.835938 C 67.445312 128.613281 67.320312 128.378906 67.21875 128.128906 C 67.117188 127.882812 67.039062 127.628906 66.988281 127.367188 C 66.933594 127.101562 66.90625 126.835938 66.910156 126.570312 C 66.90625 126.300781 66.933594 126.035156 66.988281 125.773438 C 67.039062 125.511719 67.117188 125.257812 67.21875 125.007812 C 67.320312 124.761719 67.445312 124.527344 67.597656 124.304688 C 67.746094 124.082031 67.914062 123.875 68.101562 123.6875 C 68.292969 123.496094 68.5 123.328125 68.722656 123.179688 C 68.945312 123.03125 69.179688 122.90625 69.425781 122.800781 C 69.675781 122.699219 69.929688 122.621094 70.191406 122.570312 C 70.457031 122.519531 70.722656 122.492188 70.988281 122.492188 L 124.675781 122.492188 C 124.941406 122.492188 125.207031 122.519531 125.472656 122.570312 C 125.734375 122.621094 125.988281 122.699219 126.238281 122.800781 C 126.484375 122.90625 126.71875 123.03125 126.941406 123.179688 C 127.164062 123.328125 127.371094 123.496094 127.558594 123.6875 C 127.75 123.875 127.917969 124.082031 128.066406 124.304688 C 128.214844 124.527344 128.34375 124.761719 128.445312 125.007812 C 128.546875 125.257812 128.625 125.511719 128.675781 125.773438 C 128.730469 126.035156 128.753906 126.300781 128.753906 126.570312 C 128.753906 126.835938 128.730469 127.101562 128.675781 127.367188 C 128.625 127.628906 128.546875 127.882812 128.445312 128.128906 C 128.34375 128.378906 128.214844 128.613281 128.066406 128.835938 C 127.917969 129.058594 127.75 129.265625 127.558594 129.453125 C 127.371094 129.644531 127.164062 129.8125 126.941406 129.960938 C 126.71875 130.109375 126.484375 130.234375 126.238281 130.335938 C 125.988281 130.441406 125.734375 130.515625 125.472656 130.570312 C 125.207031 130.621094 124.941406 130.648438 124.675781 130.648438 Z M 124.675781 130.648438"/><path fill="#2E2D2D" d="M 124.675781 158.179688 L 70.988281 158.179688 C 70.722656 158.179688 70.457031 158.15625 70.191406 158.101562 C 69.929688 158.050781 69.675781 157.972656 69.425781 157.871094 C 69.179688 157.769531 68.945312 157.644531 68.722656 157.496094 C 68.5 157.34375 68.292969 157.175781 68.101562 156.988281 C 67.914062 156.796875 67.746094 156.589844 67.597656 156.371094 C 67.445312 156.144531 67.320312 155.910156 67.21875 155.664062 C 67.117188 155.417969 67.039062 155.160156 66.988281 154.898438 C 66.933594 154.636719 66.90625 154.371094 66.910156 154.105469 C 66.90625 153.835938 66.933594 153.570312 66.988281 153.308594 C 67.039062 153.046875 67.117188 152.789062 67.21875 152.542969 C 67.320312 152.296875 67.445312 152.058594 67.597656 151.835938 C 67.746094 151.613281 67.914062 151.410156 68.101562 151.21875 C 68.292969 151.03125 68.5 150.863281 68.722656 150.710938 C 68.945312 150.5625 69.179688 150.4375 69.425781 150.335938 C 69.675781 150.234375 69.929688 150.15625 70.191406 150.105469 C 70.457031 150.050781 70.722656 150.027344 70.988281 150.027344 L 124.675781 150.027344 C 124.941406 150.027344 125.207031 150.050781 125.472656 150.105469 C 125.734375 150.15625 125.988281 150.234375 126.238281 150.335938 C 126.484375 150.4375 126.71875 150.5625 126.941406 150.710938 C 127.164062 150.863281 127.371094 151.03125 127.558594 151.21875 C 127.75 151.410156 127.917969 151.613281 128.066406 151.835938 C 128.214844 152.058594 128.34375 152.296875 128.445312 152.542969 C 128.546875 152.789062 128.625 153.046875 128.675781 153.308594 C 128.730469 153.570312 128.753906 153.835938 128.753906 154.105469 C 128.753906 154.371094 128.730469 154.636719 128.675781 154.898438 C 128.625 155.160156 128.546875 155.417969 128.445312 155.664062 C 128.34375 155.910156 128.214844 156.144531 128.066406 156.371094 C 127.917969 156.589844 127.75 156.796875 127.558594 156.988281 C 127.371094 157.175781 127.164062 157.34375 126.941406 157.496094 C 126.71875 157.644531 126.484375 157.769531 126.238281 157.871094 C 125.988281 157.972656 125.734375 158.050781 125.472656 158.101562 C 125.207031 158.15625 124.941406 158.179688 124.675781 158.179688 Z M 124.675781 158.179688"/><path fill="#2E2D2D" d="M 124.675781 185.714844 L 70.988281 185.714844 C 70.722656 185.714844 70.457031 185.6875 70.191406 185.636719 C 69.929688 185.582031 69.675781 185.507812 69.425781 185.402344 C 69.179688 185.300781 68.945312 185.175781 68.722656 185.027344 C 68.5 184.878906 68.292969 184.707031 68.101562 184.519531 C 67.914062 184.328125 67.746094 184.125 67.597656 183.902344 C 67.445312 183.679688 67.320312 183.445312 67.21875 183.195312 C 67.117188 182.949219 67.039062 182.695312 66.988281 182.429688 C 66.933594 182.167969 66.90625 181.902344 66.910156 181.636719 C 66.90625 181.367188 66.933594 181.101562 66.988281 180.839844 C 67.039062 180.578125 67.117188 180.324219 67.21875 180.074219 C 67.320312 179.828125 67.445312 179.59375 67.597656 179.371094 C 67.746094 179.148438 67.914062 178.941406 68.101562 178.753906 C 68.292969 178.5625 68.5 178.394531 68.722656 178.246094 C 68.945312 178.097656 69.179688 177.96875 69.425781 177.867188 C 69.675781 177.765625 69.929688 177.6875 70.191406 177.636719 C 70.457031 177.582031 70.722656 177.558594 70.988281 177.558594 L 124.675781 177.558594 C 124.941406 177.558594 125.207031 177.582031 125.472656 177.636719 C 125.734375 177.6875 125.988281 177.765625 126.238281 177.867188 C 126.484375 177.96875 126.71875 178.097656 126.941406 178.246094 C 127.164062 178.394531 127.371094 178.5625 127.558594 178.753906 C 127.75 178.941406 127.917969 179.148438 128.066406 179.371094 C 128.214844 179.59375 128.34375 179.828125 128.445312 180.074219 C 128.546875 180.324219 128.625 180.578125 128.675781 180.839844 C 128.730469 181.101562 128.753906 181.367188 128.753906 181.636719 C 128.753906 181.902344 128.730469 182.167969 128.675781 182.429688 C 128.625 182.695312 128.546875 182.949219 128.445312 183.195312 C 128.34375 183.445312 128.214844 183.679688 128.066406 183.902344 C 127.917969 184.125 127.75 184.328125 127.558594 184.519531 C 127.371094 184.707031 127.164062 184.878906 126.941406 185.027344 C 126.71875 185.175781 126.484375 185.300781 126.238281 185.402344 C 125.988281 185.507812 125.734375 185.582031 125.472656 185.636719 C 125.207031 185.6875 124.941406 185.714844 124.675781 185.714844 Z M 124.675781 185.714844"/><path fill="#2E2D2D" d="M 238.382812 75.585938 L 184.699219 75.585938 C 184.429688 75.585938 184.164062 75.558594 183.902344 75.507812 C 183.640625 75.453125 183.382812 75.375 183.136719 75.273438 C 182.890625 75.171875 182.652344 75.046875 182.429688 74.898438 C 182.207031 74.75 182.003906 74.578125 181.8125 74.390625 C 181.625 74.199219 181.453125 73.996094 181.304688 73.773438 C 181.15625 73.550781 181.03125 73.316406 180.929688 73.066406 C 180.824219 72.820312 180.75 72.566406 180.695312 72.300781 C 180.644531 72.039062 180.617188 71.773438 180.617188 71.507812 C 180.617188 71.238281 180.644531 70.972656 180.695312 70.710938 C 180.75 70.449219 180.824219 70.195312 180.929688 69.945312 C 181.03125 69.699219 181.15625 69.464844 181.304688 69.242188 C 181.453125 69.019531 181.625 68.8125 181.8125 68.625 C 182.003906 68.433594 182.207031 68.265625 182.429688 68.117188 C 182.652344 67.96875 182.890625 67.839844 183.136719 67.738281 C 183.382812 67.636719 183.640625 67.558594 183.902344 67.507812 C 184.164062 67.453125 184.429688 67.429688 184.699219 67.429688 L 238.382812 67.429688 C 238.652344 67.429688 238.917969 67.453125 239.179688 67.507812 C 239.441406 67.558594 239.699219 67.636719 239.945312 67.738281 C 240.191406 67.839844 240.429688 67.96875 240.652344 68.117188 C 240.875 68.265625 241.082031 68.433594 241.269531 68.625 C 241.460938 68.8125 241.628906 69.019531 241.777344 69.242188 C 241.925781 69.464844 242.050781 69.699219 242.152344 69.945312 C 242.257812 70.195312 242.335938 70.449219 242.386719 70.710938 C 242.4375 70.972656 242.464844 71.238281 242.464844 71.507812 C 242.464844 71.773438 242.4375 72.039062 242.386719 72.300781 C 242.335938 72.566406 242.257812 72.820312 242.152344 73.066406 C 242.050781 73.316406 241.925781 73.550781 241.777344 73.773438 C 241.628906 73.996094 241.460938 74.199219 241.269531 74.390625 C 241.082031 74.578125 240.875 74.75 240.652344 74.898438 C 240.429688 75.046875 240.191406 75.171875 239.945312 75.273438 C 239.699219 75.375 239.441406 75.453125 239.179688 75.507812 C 238.917969 75.558594 238.652344 75.585938 238.382812 75.585938 Z M 238.382812 75.585938"/><path fill="#2E2D2D" d="M 238.382812 103.117188 L 184.699219 103.117188 C 184.429688 103.117188 184.164062 103.089844 183.902344 103.039062 C 183.640625 102.988281 183.382812 102.910156 183.136719 102.808594 C 182.890625 102.703125 182.652344 102.578125 182.429688 102.429688 C 182.207031 102.28125 182.003906 102.113281 181.8125 101.921875 C 181.625 101.734375 181.453125 101.527344 181.304688 101.304688 C 181.15625 101.082031 181.03125 100.847656 180.929688 100.601562 C 180.824219 100.351562 180.75 100.097656 180.695312 99.835938 C 180.644531 99.570312 180.617188 99.308594 180.617188 99.039062 C 180.617188 98.769531 180.644531 98.507812 180.695312 98.242188 C 180.75 97.980469 180.824219 97.726562 180.929688 97.476562 C 181.03125 97.230469 181.15625 96.996094 181.304688 96.773438 C 181.453125 96.550781 181.625 96.34375 181.8125 96.15625 C 182.003906 95.964844 182.207031 95.796875 182.429688 95.648438 C 182.652344 95.5 182.890625 95.375 183.136719 95.269531 C 183.382812 95.167969 183.640625 95.089844 183.902344 95.039062 C 184.164062 94.988281 184.429688 94.960938 184.699219 94.960938 L 238.382812 94.960938 C 238.652344 94.960938 238.917969 94.988281 239.179688 95.039062 C 239.441406 95.089844 239.699219 95.167969 239.945312 95.269531 C 240.191406 95.375 240.429688 95.5 240.652344 95.648438 C 240.875 95.796875 241.082031 95.964844 241.269531 96.15625 C 241.460938 96.34375 241.628906 96.550781 241.777344 96.773438 C 241.925781 96.996094 242.050781 97.230469 242.152344 97.476562 C 242.257812 97.726562 242.335938 97.980469 242.386719 98.242188 C 242.4375 98.507812 242.464844 98.769531 242.464844 99.039062 C 242.464844 99.308594 242.4375 99.570312 242.386719 99.835938 C 242.335938 100.097656 242.257812 100.351562 242.152344 100.601562 C 242.050781 100.847656 241.925781 101.082031 241.777344 101.304688 C 241.628906 101.527344 241.460938 101.734375 241.269531 101.921875 C 241.082031 102.113281 240.875 102.28125 240.652344 102.429688 C 240.429688 102.578125 240.191406 102.703125 239.945312 102.808594 C 239.699219 102.910156 239.441406 102.988281 239.179688 103.039062 C 238.917969 103.089844 238.652344 103.117188 238.382812 103.117188 Z M 238.382812 103.117188"/><path fill="#2E2D2D" d="M 238.382812 130.648438 L 184.699219 130.648438 C 184.429688 130.648438 184.164062 130.621094 183.902344 130.570312 C 183.640625 130.515625 183.382812 130.441406 183.136719 130.335938 C 182.890625 130.234375 182.652344 130.109375 182.429688 129.960938 C 182.207031 129.8125 182.003906 129.644531 181.8125 129.453125 C 181.625 129.265625 181.453125 129.058594 181.304688 128.835938 C 181.15625 128.613281 181.03125 128.378906 180.929688 128.128906 C 180.824219 127.882812 180.75 127.628906 180.695312 127.367188 C 180.644531 127.101562 180.617188 126.835938 180.617188 126.570312 C 180.617188 126.300781 180.644531 126.035156 180.695312 125.773438 C 180.75 125.511719 180.824219 125.257812 180.929688 125.007812 C 181.03125 124.761719 181.15625 124.527344 181.304688 124.304688 C 181.453125 124.082031 181.625 123.875 181.8125 123.6875 C 182.003906 123.496094 182.207031 123.328125 182.429688 123.179688 C 182.652344 123.03125 182.890625 122.90625 183.136719 122.800781 C 183.382812 122.699219 183.640625 122.621094 183.902344 122.570312 C 184.164062 122.519531 184.429688 122.492188 184.699219 122.492188 L 238.382812 122.492188 C 238.652344 122.492188 238.917969 122.519531 239.179688 122.570312 C 239.441406 122.621094 239.699219 122.699219 239.945312 122.800781 C 240.191406 122.90625 240.429688 123.03125 240.652344 123.179688 C 240.875 123.328125 241.082031 123.496094 241.269531 123.6875 C 241.460938 123.875 241.628906 124.082031 241.777344 124.304688 C 241.925781 124.527344 242.050781 124.761719 242.152344 125.007812 C 242.257812 125.257812 242.335938 125.511719 242.386719 125.773438 C 242.4375 126.035156 242.464844 126.300781 242.464844 126.570312 C 242.464844 126.835938 242.4375 127.101562 242.386719 127.367188 C 242.335938 127.628906 242.257812 127.882812 242.152344 128.128906 C 242.050781 128.378906 241.925781 128.613281 241.777344 128.835938 C 241.628906 129.058594 241.460938 129.265625 241.269531 129.453125 C 241.082031 129.644531 240.875 129.8125 240.652344 129.960938 C 240.429688 130.109375 240.191406 130.234375 239.945312 130.335938 C 239.699219 130.441406 239.441406 130.515625 239.179688 130.570312 C 238.917969 130.621094 238.652344 130.648438 238.382812 130.648438 Z M 238.382812 130.648438"/><path fill="#2E2D2D" d="M 238.382812 158.179688 L 184.699219 158.179688 C 184.429688 158.179688 184.164062 158.15625 183.902344 158.101562 C 183.640625 158.050781 183.382812 157.972656 183.136719 157.871094 C 182.890625 157.769531 182.652344 157.644531 182.429688 157.496094 C 182.207031 157.34375 182.003906 157.175781 181.8125 156.988281 C 181.625 156.796875 181.453125 156.589844 181.304688 156.371094 C 181.15625 156.144531 181.03125 155.910156 180.929688 155.664062 C 180.824219 155.417969 180.75 155.160156 180.695312 154.898438 C 180.644531 154.636719 180.617188 154.371094 180.617188 154.105469 C 180.617188 153.835938 180.644531 153.570312 180.695312 153.308594 C 180.75 153.046875 180.824219 152.789062 180.929688 152.542969 C 181.03125 152.296875 181.15625 152.058594 181.304688 151.835938 C 181.453125 151.613281 181.625 151.410156 181.8125 151.21875 C 182.003906 151.03125 182.207031 150.863281 182.429688 150.710938 C 182.652344 150.5625 182.890625 150.4375 183.136719 150.335938 C 183.382812 150.234375 183.640625 150.15625 183.902344 150.105469 C 184.164062 150.050781 184.429688 150.027344 184.699219 150.027344 L 238.382812 150.027344 C 238.652344 150.027344 238.917969 150.050781 239.179688 150.105469 C 239.441406 150.15625 239.699219 150.234375 239.945312 150.335938 C 240.191406 150.4375 240.429688 150.5625 240.652344 150.710938 C 240.875 150.863281 241.082031 151.03125 241.269531 151.21875 C 241.460938 151.410156 241.628906 151.613281 241.777344 151.835938 C 241.925781 152.058594 242.050781 152.296875 242.152344 152.542969 C 242.257812 152.789062 242.335938 153.046875 242.386719 153.308594 C 242.4375 153.570312 242.464844 153.835938 242.464844 154.105469 C 242.464844 154.371094 242.4375 154.636719 242.386719 154.898438 C 242.335938 155.160156 242.257812 155.417969 242.152344 155.664062 C 242.050781 155.910156 241.925781 156.144531 241.777344 156.371094 C 241.628906 156.589844 241.460938 156.796875 241.269531 156.988281 C 241.082031 157.175781 240.875 157.34375 240.652344 157.496094 C 240.429688 157.644531 240.191406 157.769531 239.945312 157.871094 C 239.699219 157.972656 239.441406 158.050781 239.179688 158.101562 C 238.917969 158.15625 238.652344 158.179688 238.382812 158.179688 Z M 238.382812 158.179688"/><path fill="#2E2D2D" d="M 238.382812 185.714844 L 184.699219 185.714844 C 184.429688 185.714844 184.164062 185.6875 183.902344 185.636719 C 183.640625 185.582031 183.382812 185.507812 183.136719 185.402344 C 182.890625 185.300781 182.652344 185.175781 182.429688 185.027344 C 182.207031 184.878906 182.003906 184.707031 181.8125 184.519531 C 181.625 184.328125 181.453125 184.125 181.304688 183.902344 C 181.15625 183.679688 181.03125 183.445312 180.929688 183.195312 C 180.824219 182.949219 180.75 182.695312 180.695312 182.429688 C 180.644531 182.167969 180.617188 181.902344 180.617188 181.636719 C 180.617188 181.367188 180.644531 181.101562 180.695312 180.839844 C 180.75 180.578125 180.824219 180.324219 180.929688 180.074219 C 181.03125 179.828125 181.15625 179.59375 181.304688 179.371094 C 181.453125 179.148438 181.625 178.941406 181.8125 178.753906 C 182.003906 178.5625 182.207031 178.394531 182.429688 178.246094 C 182.652344 178.097656 182.890625 177.96875 183.136719 177.867188 C 183.382812 177.765625 183.640625 177.6875 183.902344 177.636719 C 184.164062 177.582031 184.429688 177.558594 184.699219 177.558594 L 238.382812 177.558594 C 238.652344 177.558594 238.917969 177.582031 239.179688 177.636719 C 239.441406 177.6875 239.699219 177.765625 239.945312 177.867188 C 240.191406 177.96875 240.429688 178.097656 240.652344 178.246094 C 240.875 178.394531 241.082031 178.5625 241.269531 178.753906 C 241.460938 178.941406 241.628906 179.148438 241.777344 179.371094 C 241.925781 179.59375 242.050781 179.828125 242.152344 180.074219 C 242.257812 180.324219 242.335938 180.578125 242.386719 180.839844 C 242.4375 181.101562 242.464844 181.367188 242.464844 181.636719 C 242.464844 181.902344 242.4375 182.167969 242.386719 182.429688 C 242.335938 182.695312 242.257812 182.949219 242.152344 183.195312 C 242.050781 183.445312 241.925781 183.679688 241.777344 183.902344 C 241.628906 184.125 241.460938 184.328125 241.269531 184.519531 C 241.082031 184.707031 240.875 184.878906 240.652344 185.027344 C 240.429688 185.175781 240.191406 185.300781 239.945312 185.402344 C 239.699219 185.507812 239.441406 185.582031 239.179688 185.636719 C 238.917969 185.6875 238.652344 185.714844 238.382812 185.714844 Z M 238.382812 185.714844"/><g clip-path="url(#d)"><path fill="#2E2D2D" d="M 294.546875 191.746094 C 294.054688 191.746094 293.582031 191.648438 293.128906 191.460938 C 292.675781 191.273438 292.277344 191.003906 291.929688 190.65625 C 291.582031 190.308594 291.3125 189.90625 291.125 189.449219 C 290.9375 188.996094 290.84375 188.519531 290.84375 188.027344 C 290.84375 187.535156 290.9375 187.0625 291.125 186.605469 C 291.3125 186.152344 291.582031 185.75 291.929688 185.402344 C 292.277344 185.050781 292.675781 184.785156 293.128906 184.59375 C 293.582031 184.40625 294.054688 184.3125 294.546875 184.3125 C 309.140625 184.3125 320.449219 188.53125 328.152344 196.855469 C 329.757812 198.695312 331.195312 200.660156 332.460938 202.75 C 333.730469 204.839844 334.8125 207.019531 335.703125 209.296875 C 336.597656 211.574219 337.289062 213.910156 337.78125 216.304688 C 338.273438 218.699219 338.558594 221.121094 338.632812 223.566406 C 339.832031 223.679688 341.019531 223.851562 342.203125 224.074219 C 343.382812 224.300781 344.554688 224.582031 345.710938 224.914062 C 346.867188 225.246094 348.003906 225.632812 349.125 226.070312 C 350.246094 226.511719 351.34375 227 352.417969 227.539062 C 353.492188 228.082031 354.542969 228.667969 355.5625 229.308594 C 356.585938 229.945312 357.574219 230.628906 358.535156 231.355469 C 359.492188 232.085938 360.417969 232.855469 361.304688 233.671875 C 362.191406 234.484375 363.039062 235.339844 363.851562 236.230469 C 364.660156 237.125 365.425781 238.054688 366.152344 239.015625 C 366.875 239.980469 367.554688 240.976562 368.1875 242.003906 C 368.820312 243.027344 369.402344 244.082031 369.941406 245.164062 C 370.476562 246.242188 370.960938 247.347656 371.394531 248.472656 C 371.832031 249.597656 372.210938 250.742188 372.542969 251.902344 C 372.871094 253.0625 373.148438 254.238281 373.371094 255.421875 C 373.59375 256.609375 373.757812 257.804688 373.871094 259.007812 C 373.984375 260.207031 374.039062 261.414062 374.042969 262.621094 L 374.042969 309.226562 C 374.039062 310.507812 373.976562 311.792969 373.851562 313.070312 C 373.722656 314.347656 373.535156 315.617188 373.285156 316.878906 C 373.03125 318.136719 372.722656 319.382812 372.347656 320.609375 C 371.976562 321.839844 371.542969 323.046875 371.054688 324.234375 C 370.5625 325.421875 370.015625 326.582031 369.414062 327.714844 C 368.808594 328.847656 368.152344 329.945312 367.441406 331.015625 C 366.726562 332.082031 365.964844 333.113281 365.15625 334.105469 C 364.34375 335.097656 363.484375 336.050781 362.578125 336.957031 C 361.671875 337.867188 360.726562 338.730469 359.738281 339.542969 C 358.746094 340.359375 357.71875 341.125 356.65625 341.839844 C 355.59375 342.550781 354.496094 343.210938 353.367188 343.816406 C 352.238281 344.425781 351.082031 344.972656 349.902344 345.464844 C 348.71875 345.957031 347.515625 346.390625 346.289062 346.765625 C 345.066406 347.140625 343.828125 347.453125 342.570312 347.703125 C 341.316406 347.957031 340.050781 348.144531 338.777344 348.273438 C 337.503906 348.398438 336.226562 348.464844 334.945312 348.464844 L 333.125 348.464844 C 331.84375 348.464844 330.566406 348.398438 329.292969 348.273438 C 328.019531 348.144531 326.757812 347.957031 325.5 347.703125 C 324.246094 347.453125 323.003906 347.140625 321.78125 346.765625 C 320.554688 346.390625 319.351562 345.957031 318.171875 345.464844 C 316.988281 344.972656 315.832031 344.425781 314.703125 343.816406 C 313.574219 343.210938 312.480469 342.550781 311.414062 341.839844 C 310.351562 341.125 309.324219 340.359375 308.335938 339.542969 C 307.347656 338.730469 306.398438 337.867188 305.492188 336.957031 C 304.589844 336.050781 303.730469 335.097656 302.917969 334.105469 C 302.105469 333.113281 301.34375 332.082031 300.632812 331.015625 C 299.921875 329.945312 299.261719 328.847656 298.660156 327.714844 C 298.054688 326.582031 297.507812 325.421875 297.019531 324.234375 C 296.527344 323.046875 296.09375 321.839844 295.722656 320.609375 C 295.351562 319.382812 295.039062 318.136719 294.789062 316.878906 C 294.539062 315.617188 294.347656 314.347656 294.222656 313.070312 C 294.09375 311.792969 294.03125 310.507812 294.03125 309.226562 L 294.03125 262.621094 C 294.03125 261.375 294.09375 260.132812 294.210938 258.898438 C 294.332031 257.660156 294.507812 256.429688 294.746094 255.207031 C 294.980469 253.988281 295.273438 252.777344 295.625 251.585938 C 295.976562 250.394531 296.382812 249.21875 296.84375 248.0625 C 297.304688 246.910156 297.820312 245.78125 298.386719 244.675781 C 298.957031 243.570312 299.578125 242.492188 300.246094 241.445312 C 300.917969 240.402344 301.636719 239.390625 302.402344 238.410156 C 303.167969 237.433594 303.980469 236.496094 304.835938 235.59375 C 305.691406 234.695312 306.585938 233.835938 307.523438 233.023438 C 308.457031 232.207031 309.429688 231.4375 310.441406 230.714844 C 311.449219 229.996094 312.492188 229.320312 313.5625 228.699219 C 314.636719 228.078125 315.738281 227.507812 316.863281 226.988281 C 317.992188 226.472656 319.140625 226.007812 320.308594 225.601562 C 321.480469 225.191406 322.667969 224.839844 323.871094 224.546875 C 325.078125 224.25 326.292969 224.015625 327.519531 223.835938 C 328.746094 223.65625 329.976562 223.535156 331.214844 223.476562 C 331.058594 219.503906 330.253906 215.667969 328.796875 211.972656 C 327.34375 208.273438 325.320312 204.921875 322.730469 201.914062 C 316.484375 195.167969 307 191.746094 294.546875 191.746094 Z M 334.035156 268.382812 C 334.367188 268.382812 334.695312 268.351562 335.023438 268.285156 C 335.347656 268.21875 335.664062 268.125 335.972656 267.996094 C 336.277344 267.867188 336.570312 267.710938 336.847656 267.527344 C 337.121094 267.339844 337.378906 267.128906 337.613281 266.894531 C 337.847656 266.660156 338.058594 266.402344 338.242188 266.125 C 338.425781 265.847656 338.582031 265.554688 338.710938 265.246094 C 338.839844 264.9375 338.933594 264.621094 339 264.292969 C 339.066406 263.96875 339.097656 263.636719 339.097656 263.304688 L 339.097656 248.683594 C 339.097656 248.347656 339.066406 248.019531 339 247.691406 C 338.9375 247.363281 338.839844 247.046875 338.710938 246.738281 C 338.585938 246.429688 338.429688 246.136719 338.246094 245.859375 C 338.058594 245.582031 337.851562 245.324219 337.613281 245.089844 C 337.378906 244.855469 337.125 244.644531 336.847656 244.457031 C 336.570312 244.273438 336.28125 244.117188 335.972656 243.988281 C 335.664062 243.859375 335.347656 243.765625 335.023438 243.699219 C 334.699219 243.632812 334.367188 243.601562 334.035156 243.601562 C 333.703125 243.601562 333.375 243.632812 333.046875 243.699219 C 332.722656 243.765625 332.40625 243.859375 332.097656 243.988281 C 331.792969 244.117188 331.5 244.273438 331.222656 244.457031 C 330.949219 244.644531 330.691406 244.855469 330.457031 245.089844 C 330.222656 245.324219 330.011719 245.582031 329.828125 245.859375 C 329.640625 246.136719 329.488281 246.429688 329.359375 246.738281 C 329.230469 247.046875 329.136719 247.363281 329.070312 247.691406 C 329.007812 248.019531 328.972656 248.347656 328.972656 248.683594 L 328.972656 263.304688 C 328.972656 263.636719 329.007812 263.96875 329.070312 264.292969 C 329.136719 264.621094 329.234375 264.9375 329.359375 265.246094 C 329.488281 265.554688 329.644531 265.847656 329.828125 266.125 C 330.011719 266.402344 330.222656 266.660156 330.457031 266.894531 C 330.691406 267.128906 330.949219 267.339844 331.226562 267.527344 C 331.5 267.710938 331.792969 267.867188 332.101562 267.996094 C 332.40625 268.125 332.722656 268.21875 333.046875 268.285156 C 333.375 268.351562 333.703125 268.382812 334.035156 268.382812 Z M 337.738281 230.953125 L 337.738281 236.800781 C 338.367188 236.992188 338.976562 237.238281 339.566406 237.53125 C 340.15625 237.824219 340.722656 238.160156 341.257812 238.542969 C 341.792969 238.925781 342.296875 239.347656 342.769531 239.808594 C 343.238281 240.269531 343.667969 240.769531 344.0625 241.296875 C 344.453125 241.828125 344.800781 242.386719 345.101562 242.976562 C 345.40625 243.5625 345.660156 244.167969 345.871094 244.796875 C 346.078125 245.421875 346.234375 246.0625 346.339844 246.714844 C 346.445312 247.367188 346.5 248.023438 346.503906 248.683594 L 346.503906 263.304688 C 346.5 263.964844 346.445312 264.621094 346.339844 265.273438 C 346.234375 265.925781 346.078125 266.566406 345.871094 267.191406 C 345.660156 267.820312 345.40625 268.425781 345.101562 269.011719 C 344.800781 269.597656 344.453125 270.15625 344.0625 270.6875 C 343.667969 271.21875 343.238281 271.714844 342.769531 272.179688 C 342.296875 272.640625 341.792969 273.0625 341.257812 273.445312 C 340.722656 273.828125 340.15625 274.164062 339.566406 274.457031 C 338.976562 274.75 338.367188 274.992188 337.738281 275.1875 L 337.738281 277.273438 L 366.636719 277.273438 L 366.636719 262.621094 C 366.636719 261.636719 366.589844 260.65625 366.496094 259.679688 C 366.40625 258.699219 366.269531 257.726562 366.085938 256.761719 C 365.90625 255.796875 365.679688 254.84375 365.410156 253.898438 C 365.140625 252.953125 364.828125 252.023438 364.472656 251.105469 C 364.117188 250.191406 363.722656 249.292969 363.285156 248.414062 C 362.84375 247.535156 362.367188 246.679688 361.851562 245.847656 C 361.332031 245.011719 360.777344 244.203125 360.1875 243.421875 C 359.597656 242.636719 358.96875 241.882812 358.308594 241.160156 C 357.648438 240.433594 356.953125 239.742188 356.230469 239.082031 C 355.503906 238.421875 354.75 237.796875 353.964844 237.207031 C 353.183594 236.617188 352.375 236.0625 351.542969 235.550781 C 350.707031 235.035156 349.851562 234.558594 348.976562 234.125 C 348.097656 233.6875 347.203125 233.292969 346.289062 232.941406 C 345.375 232.589844 344.445312 232.28125 343.503906 232.015625 C 342.5625 231.75 341.609375 231.527344 340.644531 231.347656 C 339.683594 231.171875 338.714844 231.039062 337.738281 230.953125 Z M 333.125 341.03125 L 334.945312 341.03125 C 335.984375 341.03125 337.019531 340.980469 338.050781 340.875 C 339.085938 340.773438 340.109375 340.621094 341.128906 340.414062 C 342.144531 340.210938 343.148438 339.957031 344.140625 339.65625 C 345.136719 339.351562 346.109375 339 347.070312 338.601562 C 348.027344 338.203125 348.964844 337.757812 349.878906 337.265625 C 350.792969 336.773438 351.683594 336.238281 352.542969 335.660156 C 353.40625 335.082031 354.238281 334.460938 355.042969 333.800781 C 355.84375 333.140625 356.609375 332.441406 357.34375 331.707031 C 358.078125 330.96875 358.773438 330.199219 359.433594 329.394531 C 360.089844 328.589844 360.707031 327.753906 361.285156 326.886719 C 361.863281 326.023438 362.394531 325.128906 362.886719 324.210938 C 363.375 323.292969 363.816406 322.351562 364.214844 321.390625 C 364.613281 320.429688 364.960938 319.449219 365.265625 318.453125 C 365.566406 317.457031 365.820312 316.449219 366.023438 315.425781 C 366.226562 314.40625 366.378906 313.378906 366.480469 312.339844 C 366.585938 311.304688 366.636719 310.265625 366.636719 309.226562 L 366.636719 284.707031 L 301.433594 284.707031 L 301.433594 309.226562 C 301.4375 310.265625 301.488281 311.304688 301.589844 312.339844 C 301.691406 313.378906 301.847656 314.40625 302.050781 315.425781 C 302.253906 316.449219 302.503906 317.457031 302.808594 318.453125 C 303.109375 319.449219 303.457031 320.429688 303.855469 321.390625 C 304.253906 322.351562 304.699219 323.292969 305.1875 324.210938 C 305.675781 325.128906 306.210938 326.023438 306.785156 326.886719 C 307.363281 327.753906 307.980469 328.589844 308.640625 329.394531 C 309.296875 330.199219 309.992188 330.96875 310.726562 331.707031 C 311.460938 332.441406 312.226562 333.140625 313.03125 333.800781 C 313.832031 334.460938 314.664062 335.082031 315.527344 335.660156 C 316.390625 336.238281 317.277344 336.773438 318.191406 337.265625 C 319.109375 337.757812 320.042969 338.203125 321.003906 338.601562 C 321.960938 339 322.9375 339.351562 323.929688 339.65625 C 324.921875 339.957031 325.925781 340.210938 326.945312 340.414062 C 327.960938 340.621094 328.988281 340.773438 330.019531 340.875 C 331.050781 340.980469 332.085938 341.03125 333.125 341.03125 Z M 301.433594 262.621094 L 301.433594 277.273438 L 330.332031 277.273438 L 330.332031 275.1875 C 329.703125 274.992188 329.09375 274.75 328.503906 274.457031 C 327.914062 274.164062 327.351562 273.828125 326.8125 273.445312 C 326.277344 273.0625 325.773438 272.640625 325.304688 272.179688 C 324.832031 271.714844 324.402344 271.21875 324.011719 270.6875 C 323.617188 270.15625 323.273438 269.597656 322.96875 269.011719 C 322.664062 268.425781 322.410156 267.820312 322.203125 267.191406 C 321.996094 266.566406 321.839844 265.925781 321.730469 265.273438 C 321.625 264.621094 321.570312 263.964844 321.570312 263.304688 L 321.570312 248.683594 C 321.570312 248.023438 321.625 247.367188 321.730469 246.714844 C 321.839844 246.0625 321.996094 245.421875 322.203125 244.796875 C 322.410156 244.167969 322.664062 243.5625 322.96875 242.976562 C 323.273438 242.386719 323.617188 241.828125 324.011719 241.300781 C 324.402344 240.769531 324.832031 240.269531 325.304688 239.808594 C 325.773438 239.347656 326.277344 238.925781 326.8125 238.542969 C 327.351562 238.160156 327.914062 237.824219 328.503906 237.53125 C 329.09375 237.238281 329.703125 236.996094 330.332031 236.800781 L 330.332031 230.953125 C 329.359375 231.039062 328.390625 231.171875 327.425781 231.347656 C 326.464844 231.527344 325.511719 231.75 324.570312 232.015625 C 323.625 232.28125 322.699219 232.589844 321.785156 232.941406 C 320.871094 233.292969 319.972656 233.6875 319.097656 234.125 C 318.21875 234.558594 317.363281 235.035156 316.53125 235.550781 C 315.695312 236.0625 314.886719 236.617188 314.105469 237.207031 C 313.324219 237.796875 312.570312 238.421875 311.84375 239.082031 C 311.117188 239.742188 310.425781 240.433594 309.765625 241.160156 C 309.101562 241.882812 308.476562 242.636719 307.882812 243.421875 C 307.292969 244.203125 306.738281 245.011719 306.222656 245.847656 C 305.703125 246.679688 305.226562 247.535156 304.789062 248.414062 C 304.351562 249.292969 303.953125 250.191406 303.597656 251.105469 C 303.242188 252.023438 302.929688 252.953125 302.660156 253.898438 C 302.390625 254.84375 302.164062 255.796875 301.984375 256.761719 C 301.800781 257.726562 301.667969 258.699219 301.574219 259.679688 C 301.484375 260.65625 301.4375 261.636719 301.433594 262.621094 Z M 301.433594 262.621094"/></g><g fill="#2E2D2D"><use x="41.625" y="282.408" xmlns:xlink="http://www.w3.org/1999/xlink" xlink:href="#e" xlink:type="simple" xlink:actuate="onLoad" xlink:show="embed"/></g><g fill="#2E2D2D"><use x="63.371" y="282.408" xmlns:xlink="http://www.w3.org/1999/xlink" xlink:href="#f" xlink:type="simple" xlink:actuate="onLoad" xlink:show="embed"/></g><g fill="#2E2D2D"><use x="83.625" y="282.408" xmlns:xlink="http://www.w3.org/1999/xlink" xlink:href="#g" xlink:type="simple" xlink:actuate="onLoad" xlink:show="embed"/></g><g fill="#2E2D2D"><use x="101.603" y="282.408" xmlns:xlink="http://www.w3.org/1999/xlink" xlink:href="#g" xlink:type="simple" xlink:actuate="onLoad" xlink:show="embed"/></g><g fill="#2E2D2D"><use x="119.581" y="282.408" xmlns:xlink="http://www.w3.org/1999/xlink" xlink:href="#h" xlink:type="simple" xlink:actuate="onLoad" xlink:show="embed"/></g><g fill="#2E2D2D"><use x="138.344" y="282.408" xmlns:xlink="http://www.w3.org/1999/xlink" xlink:href="#i" xlink:type="simple" xlink:actuate="onLoad" xlink:show="embed"/></g><g fill="#2E2D2D"><use x="148.053" y="282.408" xmlns:xlink="http://www.w3.org/1999/xlink" xlink:href="#j" xlink:type="simple" xlink:actuate="onLoad" xlink:show="embed"/></g><g fill="#2E2D2D"><use x="168.569" y="282.408" xmlns:xlink="http://www.w3.org/1999/xlink" xlink:href="#k" xlink:type="simple" xlink:actuate="onLoad" xlink:show="embed"/></g><g fill="#2E2D2D"><use x="187.646" y="282.408" xmlns:xlink="http://www.w3.org/1999/xlink" xlink:href="#f" xlink:type="simple" xlink:actuate="onLoad" xlink:show="embed"/></g><g fill="#2E2D2D"><use x="207.901" y="282.408" xmlns:xlink="http://www.w3.org/1999/xlink" xlink:href="#l" xlink:type="simple" xlink:actuate="onLoad" xlink:show="embed"/></g><g fill="#2E2D2D"><use x="228.914" y="282.408" xmlns:xlink="http://www.w3.org/1999/xlink" xlink:href="#m" xlink:type="simple" xlink:actuate="onLoad" xlink:show="embed"/></g><g fill="#2E2D2D"><use x="247.232" y="282.408" xmlns:xlink="http://www.w3.org/1999/xlink" xlink:href="#n" xlink:type="simple" xlink:actuate="onLoad" xlink:show="embed"/></g><g fill="#2E2D2D"><use x="63.808" y="336.47" xmlns:xlink="http://www.w3.org/1999/xlink" xlink:href="#o" xlink:type="simple" xlink:actuate="onLoad" xlink:show="embed"/></g><g fill="#2E2D2D"><use x="79.826" y="336.47" xmlns:xlink="http://www.w3.org/1999/xlink" xlink:href="#p" xlink:type="simple" xlink:actuate="onLoad" xlink:show="embed"/></g><g fill="#2E2D2D"><use x="99.505" y="336.47" xmlns:xlink="http://www.w3.org/1999/xlink" xlink:href="#q" xlink:type="simple" xlink:actuate="onLoad" xlink:show="embed"/></g><g fill="#2E2D2D"><use x="107.366" y="336.47" xmlns:xlink="http://www.w3.org/1999/xlink" xlink:href="#r" xlink:type="simple" xlink:actuate="onLoad" xlink:show="embed"/></g><g fill="#2E2D2D"><use x="123.558" y="336.47" xmlns:xlink="http://www.w3.org/1999/xlink" xlink:href="#s" xlink:type="simple" xlink:actuate="onLoad" xlink:show="embed"/></g><g fill="#2E2D2D"><use x="141.964" y="336.47" xmlns:xlink="http://www.w3.org/1999/xlink" xlink:href="#t" xlink:type="simple" xlink:actuate="onLoad" xlink:show="embed"/></g><g fill="#2E2D2D"><use x="156.675" y="336.47" xmlns:xlink="http://www.w3.org/1999/xlink" xlink:href="#u" xlink:type="simple" xlink:actuate="onLoad" xlink:show="embed"/></g><g fill="#2E2D2D"><use x="165.669" y="336.47" xmlns:xlink="http://www.w3.org/1999/xlink" xlink:href="#v" xlink:type="simple" xlink:actuate="onLoad" xlink:show="embed"/></g><g fill="#2E2D2D"><use x="179.857" y="336.47" xmlns:xlink="http://www.w3.org/1999/xlink" xlink:href="#w" xlink:type="simple" xlink:actuate="onLoad" xlink:show="embed"/></g><g fill="#2E2D2D"><use x="194.585" y="336.47" xmlns:xlink="http://www.w3.org/1999/xlink" xlink:href="#o" xlink:type="simple" xlink:actuate="onLoad" xlink:show="embed"/></g><g fill="#2E2D2D"><use x="210.603" y="336.47" xmlns:xlink="http://www.w3.org/1999/xlink" xlink:href="#p" xlink:type="simple" xlink:actuate="onLoad" xlink:show="embed"/></g><g fill="#2E2D2D"><use x="230.281" y="336.47" xmlns:xlink="http://www.w3.org/1999/xlink" xlink:href="#x" xlink:type="simple" xlink:actuate="onLoad" xlink:show="embed"/></g></svg>